<?xml version="1.0" encoding="utf-8"?>
<!-- Generator: Adobe Illustrator 24.0.0, SVG Export Plug-In . SVG Version: 6.00 Build 0)  -->
<svg version="1.1" id="Layer_1" xmlns="http://www.w3.org/2000/svg" xmlns:xlink="http://www.w3.org/1999/xlink" x="0px" y="0px"
	 viewBox="0 0 2500 1500" style="enable-background:new 0 0 2500 1500;" xml:space="preserve">
<g id="Layer_1_1_">
	<image style="overflow:visible;enable-background:new    ;" width="2500" height="1500" xlink:href="3A0C9EE3.png" >
	</image>
	
		<image style="overflow:visible;enable-background:new    ;" width="2501" height="1501" xlink:href="3A0C9EE1.jpeg"  transform="matrix(0.9992 0 0 0.9992 0.8968 0.2049)">
	</image>
</g>
<g id="homestead-elementary">
	
		<image style="overflow:visible;enable-background:new    ;" width="136" height="205" xlink:href="3A0C9EE7.png"  transform="matrix(0.4049 0 0 0.4049 795.3958 1126.5031)">
	</image>
</g>
<g id="dry-creek-elementary">
	
		<image style="overflow:visible;enable-background:new    ;" width="136" height="205" xlink:href="3A0C9EE1.png"  transform="matrix(0.4049 0 0 0.4049 882 1130)">
	</image>
</g>
<g id="willow-creek-elementary">
	
		<image style="overflow:visible;enable-background:new    ;" width="136" height="205" xlink:href="3A0C9EE0.png"  transform="matrix(0.4049 0 0 0.4049 971 1204)">
	</image>
</g>
<g id="walnut-hills-elementary">
	
		<image style="overflow:visible;enable-background:new    ;" width="136" height="205" xlink:href="3A0C9EEF.png"  transform="matrix(0.4049 0 0 0.4049 910 1032)">
	</image>
</g>
<g id="heritage-elementary">
	
		<image style="overflow:visible;enable-background:new    ;" width="136" height="205" xlink:href="3A0C9EE2.png"  transform="matrix(0.4049 0 0 0.4049 795 966)">
	</image>
</g>
<g id="greenwood-elementary">
	
		<image style="overflow:visible;enable-background:new    ;" width="136" height="205" xlink:href="3A0C9EE5.png"  transform="matrix(0.4049 0 0 0.4049 719 778)">
	</image>
</g>
<g id="west-middle-school">
	
		<image style="overflow:visible;enable-background:new    ;" width="136" height="205" xlink:href="3A0C9EE6.png"  transform="matrix(0.4049 0 0 0.4049 683 690)">
	</image>
</g>
<g id="cherry-hills-village-elementary">
	
		<image style="overflow:visible;enable-background:new    ;" width="136" height="205" xlink:href="63D2F6D0.png"  transform="matrix(0.4049 0 0 0.4049 413 528)">
	</image>
</g>
<g id="holly-ridge-elementary">
	
		<image style="overflow:visible;enable-background:new    ;" width="136" height="205" xlink:href="63D2F6D7.png"  transform="matrix(0.4049 0 0 0.4049 863 424)">
	</image>
</g>
<g id="holly-hills-primary">
	
		<image style="overflow:visible;enable-background:new    ;" width="136" height="205" xlink:href="63D2F6D1.png"  transform="matrix(0.4049 0 0 0.4049 834 323)">
	</image>
</g>
<g id="cherry-creek-high-school">
	
		<image style="overflow:visible;enable-background:new    ;" width="136" height="205" xlink:href="63D2F6D3.png"  transform="matrix(0.4049 0 0 0.4049 1036 547)">
	</image>
</g>
<g id="campus-middle-school">
	
		<image style="overflow:visible;enable-background:new    ;" width="136" height="205" xlink:href="63D2F6CE.png"  transform="matrix(0.4049 0 0 0.4049 1089.1782 585.0076)">
	</image>
</g>
<g id="belleview-elementary">
	
		<image style="overflow:visible;enable-background:new    ;" width="136" height="205" xlink:href="63D2F6CF.png"  transform="matrix(0.4049 0 0 0.4049 1044.1782 637.0076)">
	</image>
</g>
<g id="high-plains-elementary">
	
		<image style="overflow:visible;enable-background:new    ;" width="136" height="205" xlink:href="63D2F6F0.png"  transform="matrix(0.4049 0 0 0.4049 1120.4865 876.21)">
	</image>
</g>
<g id="cottonwood-creek-elementary">
	
		<image style="overflow:visible;enable-background:new    ;" width="136" height="205" xlink:href="63D2F6F3.png"  transform="matrix(0.4049 0 0 0.4049 1218 844)">
	</image>
</g>
</svg>
