<svg xmlns="http://www.w3.org/2000/svg" xmlns:xlink="http://www.w3.org/1999/xlink" viewBox="0 0 384 294">
  <defs/>
  <defs>
    <path id="a" d="M0 0h384v294H0z"/>
  </defs>
  <clipPath id="b">
    <use overflow="visible" xlink:href="#a"/>
  </clipPath>
  <path fill="#107b96" d="M337.12.88H46.96C21.05.88 0 21.94 0 47.84v198.32c0 25.9 21.05 46.96 46.96 46.96h290.09c25.9 0 46.96-21.06 46.96-46.96V47.92c.07-25.9-20.99-47.04-46.89-47.04zm25.51 245.28c0 14.06-11.44 25.5-25.5 25.5H46.96c-14.06 0-25.5-11.44-25.5-25.5V47.92c0-14.06 11.44-25.5 25.5-25.5h290.09c14.06 0 25.5 11.44 25.5 25.5v198.24h.08zm0 0" clip-path="url(#b)"/>
  <path fill="#107b96" d="M242.18 144.54l93.91-84.22c4.37-3.97 4.77-10.73.79-15.18-3.97-4.37-10.73-4.77-15.18-.79L192.2 160.59l-25.26-22.56c-.08-.08-.16-.16-.16-.24-.55-.56-1.11-1.04-1.75-1.51L62.21 44.27c-4.45-3.97-11.2-3.57-15.18.88-3.97 4.45-3.57 11.2.88 15.18l95.03 84.94-94.63 88.59c-4.29 4.05-4.53 10.8-.48 15.18 2.14 2.22 5 3.41 7.86 3.41 2.63 0 5.25-.95 7.31-2.86l96.06-89.86 26.06 23.28c2.06 1.83 4.6 2.7 7.15 2.7 2.54 0 5.16-.95 7.15-2.78l26.77-24 95.5 90.73c2.07 1.99 4.77 2.94 7.39 2.94 2.86 0 5.64-1.11 7.79-3.34 4.05-4.29 3.89-11.13-.39-15.18l-94.3-89.54zm0 0"/>
</svg>
