<?xml version="1.0" encoding="UTF-8"?><svg id="Layer_2" xmlns="http://www.w3.org/2000/svg" width="20" height="15.313" xmlns:xlink="http://www.w3.org/1999/xlink" viewBox="0 0 20 15.313"><defs><clipPath id="clippath"><rect width="20" height="15.313" style="fill:none;"/></clipPath></defs><g id="Layer_2-2"><g><g style="clip-path:url(#clippath);"><path d="m17.558.046H2.446C1.096.046,0,1.143,0,2.491v10.329C0,14.169,1.096,15.266,2.446,15.266h15.109c1.349,0,2.446-1.097,2.446-2.446V2.495c.004-1.349-1.092-2.45-2.442-2.45h0Zm1.329,12.775c0,.732-.596,1.329-1.329,1.329H2.446c-.732,0-1.329-.596-1.329-1.329V2.495c0-.732.596-1.329,1.329-1.329h15.109c.732,0,1.329.596,1.329,1.329v10.325h.004Z" style="fill:#107b96;"/></g><path d="m12.613,7.527l4.891-4.387c.227-.207.248-.559.041-.79-.207-.227-.559-.248-.79-.041l-6.745,6.054-1.316-1.175s-.008-.008-.008-.012c-.029-.029-.058-.054-.091-.079L3.241,2.305c-.231-.207-.583-.186-.79.046-.207.231-.186.583.046.79l4.949,4.424-4.929,4.614c-.223.211-.236.563-.025.79.112.116.26.178.41.178.137,0,.273-.05.381-.149l5.003-4.681,1.357,1.213c.108.095.24.141.372.141s.269-.05.373-.145l1.394-1.25,4.974,4.726c.108.104.248.154.385.154.149,0,.294-.058.406-.174.211-.223.203-.579-.021-.79l-4.913-4.664Z" style="fill:#107b96;"/></g></g></svg>