<?xml version="1.0" encoding="UTF-8"?><svg id="Layer_2" xmlns="http://www.w3.org/2000/svg" width="20" height="16.275" viewBox="0 0 20 16.275"><g id="Layer_2-2"><path id="_04.Twitter" d="m20,1.925c-.75.325-1.525.55-2.35.65.85-.5,1.5-1.3,1.8-2.275-.8.475-1.675.8-2.6,1-.75-.8-1.825-1.3-3-1.3-2.275,0-4.1,1.85-4.1,4.1,0,.325.025.625.1.925-3.4-.15-6.4-1.8-8.425-4.275C-.025,3.35,1.6,5.5,2.675,6.225c-.65,0-1.3-.2-1.85-.5,0,2.025,1.425,3.7,3.275,4.075-.4.125-1.3.2-1.85.075.525,1.625,2.05,2.825,3.825,2.85-1.4,1.1-3.45,1.975-6.075,1.7,1.825,1.175,3.975,1.85,6.3,1.85,7.55,0,11.65-6.25,11.65-11.65,0-.175,0-.35-.025-.525.85-.625,1.551-1.35,2.075-2.175h0Z" style="fill:#fff;"/></g></svg>