<?xml version="1.0" encoding="UTF-8"?><svg xmlns="http://www.w3.org/2000/svg" width="80" height="80" viewBox="0 0 80 80"><circle cx="40" cy="40" r="40" fill="#418a4e"/><g opacity=".75" fill="#fff"><path d="M40.138 26.495s-2.947-.309-4.547-2.31c-.936-1.171-1.185-1.997-1.278-3.035-.079-.881-.161-2.83.557-4.28.875-1.766.761-2.061.179-2.131-.418-.05-.543-.414-1.504.975-.89 1.286-1.068 2.373-1.212 3.455-.103.773-.252 3.621 1.281 5.818a19.69 19.69 0 0 0 3.326 3.623l.04 7.16s-2.556 7.885-3.012 10.562c-.084.492.786 1.334 1.266 1.468.515.143 1.6.061 1.688-.466.456-2.756 2.787-10.22 2.787-10.22h.853"/><path d="M39.863 26.495s2.947-.309 4.547-2.31c.936-1.171 1.185-1.997 1.278-3.035.079-.881.161-2.83-.557-4.28-.875-1.766-.761-2.061-.179-2.131.418-.05.543-.414 1.504.975.89 1.286 1.068 2.373 1.212 3.455.103.773.252 3.621-1.281 5.818-1.493 2.14-3.326 3.623-3.326 3.623l-.04 7.16s2.556 7.885 3.012 10.562c.084.492-.786 1.334-1.266 1.468-.515.143-1.6.061-1.688-.466-.456-2.756-2.787-10.22-2.787-10.22h-.853"/><circle cx="40.138" cy="21.176" r="3.444"/></g><g fill="#fff"><path d="M6.121 27.623s.197-.542.315-.685c.133-.162.471-.451.671-.482.361-.056 1.137.117 1.424.338.403.309 1.168 1.019 1.424 1.471.456.806.922 2.649 1.151 3.559.398 1.583.109 4.843.164 6.389.034.96 1.48 3.508 1.48 3.508l2.575 3.592 3.854 3.83s-.965-2.023-1.434-2.582c-1.241-1.473-3.341-4.031-3.569-5.752-.043-.325-.019-1.313-.019-1.313s.497-.835.739-1.03c.256-.208.875-.497 1.196-.516.484-.028 1.462.482 1.653.807.587 1.003 2.042 2.761 2.821 3.656 1.187 1.364 5.33 4.849 6.658 6.039.781.7 1.289 1.21 1.635 1.692.591.823 1.691 2.549 2.027 3.52.414 1.195.723 2.6.858 3.491.247 1.621.434 4.913.73 6.525 7.198 10.643 6.135 12.274 2.327 11.796-.594-.075-2.851-.546-3.045-.577-2.032-.33-7.742-2.865-8.606-3.819-.511-.565-.418-2.368-.6-3.069-.339-1.298-1.21-2.981-1.665-3.972-.846-1.837-3.179-5.035-4.475-6.506-1.662-1.886-5.383-5.425-6.675-7.738-1.143-2.044-3.069-7.267-3.37-10.067-.305-2.841-.246-12.106-.246-12.106ZM73.88 27.623s-.197-.542-.315-.685c-.133-.162-.471-.451-.671-.482-.361-.056-1.137.117-1.424.338-.403.309-1.168 1.019-1.424 1.471-.456.806-.922 2.649-1.151 3.559-.398 1.583-.109 4.843-.164 6.389-.034.96-1.48 3.508-1.48 3.508l-2.575 3.592-3.854 3.83s.965-2.023 1.434-2.582c1.241-1.473 3.341-4.031 3.569-5.752.043-.325.019-1.313.019-1.313s-.497-.835-.739-1.03c-.256-.208-.875-.497-1.196-.516-.484-.028-1.462.482-1.653.807-.587 1.003-2.042 2.761-2.821 3.656-1.187 1.364-5.33 4.849-6.658 6.039-.781.7-1.289 1.21-1.635 1.692-.591.823-1.691 2.549-2.027 3.52a21.628 21.628 0 0 0-.858 3.491c-.247 1.621-.434 4.913-.73 6.525-7.198 10.643-6.135 12.274-2.327 11.796.594-.075 2.851-.546 3.045-.577 2.032-.33 7.742-2.865 8.606-3.819.511-.565.418-2.368.6-3.069.339-1.298 1.21-2.981 1.665-3.972.846-1.837 3.179-5.035 4.475-6.506 1.662-1.886 5.383-5.425 6.675-7.738 1.143-2.044 3.069-7.267 3.37-10.067.305-2.841.246-12.106.246-12.106Z"/></g></svg>