<?xml version="1.0" encoding="UTF-8"?><svg id="Layer_2" xmlns="http://www.w3.org/2000/svg" width="20" height="20.004" viewBox="0 0 20 20.004"><g id="Layer_2-2"><g><path d="m19.949,5.881c-.047-1.063-.219-1.794-.465-2.427-.254-.672-.645-1.274-1.157-1.774-.5-.508-1.106-.903-1.77-1.153-.637-.246-1.364-.418-2.427-.465-1.071-.051-1.41-.063-4.126-.063s-3.056.012-4.123.059c-1.063.047-1.794.219-2.427.465-.673.254-1.274.645-1.775,1.156-.508.5-.903,1.106-1.153,1.771-.246.637-.418,1.363-.465,2.426-.051,1.071-.063,1.411-.063,4.127s.012,3.056.059,4.123c.047,1.063.219,1.794.465,2.427.254.672.649,1.274,1.157,1.774.5.508,1.106.903,1.77,1.153.637.246,1.364.418,2.427.465,1.067.047,1.407.059,4.123.059s3.056-.012,4.123-.059c1.063-.047,1.794-.219,2.427-.465,1.344-.52,2.407-1.583,2.927-2.927.246-.637.418-1.364.465-2.427.047-1.067.059-1.407.059-4.123s-.004-3.056-.051-4.123Zm-1.802,8.167c-.043.977-.207,1.504-.344,1.856-.336.871-1.028,1.563-1.899,1.899-.352.137-.883.301-1.856.344-1.055.047-1.372.059-4.041.059s-2.99-.012-4.041-.059c-.977-.043-1.504-.207-1.856-.344-.434-.16-.828-.414-1.149-.747-.332-.325-.586-.715-.747-1.149-.137-.352-.301-.883-.344-1.856-.047-1.055-.059-1.372-.059-4.041s.012-2.99.059-4.041c.043-.977.207-1.504.344-1.856.16-.434.414-.828.75-1.149.324-.332.715-.586,1.149-.746.352-.137.883-.301,1.856-.344,1.055-.047,1.372-.059,4.041-.059s2.99.012,4.041.059c.977.043,1.504.207,1.856.344.434.16.828.414,1.149.746.332.325.586.715.747,1.149.137.352.301.883.344,1.856.047,1.055.059,1.372.059,4.041s-.012,2.982-.059,4.037Z" style="fill:#fff;"/><path d="m10.004,4.865c-2.837,0-5.139,2.301-5.139,5.139s2.302,5.139,5.139,5.139,5.139-2.301,5.139-5.139-2.302-5.139-5.139-5.139Zm0,8.472c-1.84,0-3.333-1.493-3.333-3.333s1.493-3.333,3.333-3.333,3.333,1.493,3.333,3.333-1.493,3.333-3.333,3.333Z" style="fill:#fff;"/><path d="m16.546,4.662c0,.662-.537,1.2-1.2,1.2s-1.2-.537-1.2-1.2.537-1.2,1.2-1.2c.662,0,1.2.537,1.2,1.2Z" style="fill:#fff;"/></g></g></svg>