<?xml version="1.0" encoding="UTF-8"?><svg id="Layer_2" xmlns="http://www.w3.org/2000/svg" width="27" height="26.808" viewBox="0 0 27 26.808"><g id="Layer_2-2"><path d="m13.665,0C7.941,0,3.3,4.64,3.3,10.364c0,1.391.275,2.72.773,3.934-.344.398-.662.951-1.092,1.693l-2.163,3.746c-.267.462-.514.89-.656,1.244-.139.346-.315.948.073,1.505.393.564,1.024.597,1.398.578.379-.019.86-.113,1.377-.215l.937-.184c.52-.102.828-.161,1.057-.177.104-.007.16-.002.188.002.013.002.019.004.02.004.001,0,.002,0,.003.002.002,0,.002.001.003.002.001.001.006.005.014.015.018.022.05.068.096.162.1.206.204.502.375,1.003l.309.904c.17.499.329.963.502,1.3.171.333.515.863,1.2.921.676.058,1.109-.395,1.339-.689.235-.3.482-.728.749-1.19l2.119-3.671c.13-.225.249-.43.355-.619.454.061.917.092,1.387.092.364,0,.723-.019,1.078-.056.101.178.213.371.334.581l2.119,3.671c.267.462.514.89.749,1.19.23.294.663.747,1.339.689.685-.058,1.029-.588,1.2-.921.173-.337.331-.801.502-1.3l.309-.904c.171-.501.274-.797.375-1.003.046-.094.078-.14.096-.162.001-.001.002-.002.003-.003.007-.007.01-.011.011-.012h.002s.002-.002.002-.002c.002,0,.002-.001.003-.002.002,0,.007-.002.02-.004.028-.004.084-.009.188-.002.229.016.537.074,1.057.177l.937.184c.517.102.998.197,1.377.215.374.018,1.005-.015,1.398-.578.388-.556.213-1.158.073-1.505-.142-.354-.389-.781-.656-1.244l-2.185-3.785c-.324-.562-.587-1.018-.856-1.384.571-1.286.889-2.709.889-4.205,0-5.724-4.64-10.364-10.364-10.364h0ZM5.078,10.364C5.078,5.622,8.923,1.777,13.665,1.777s8.587,3.845,8.587,8.587c0,1.42-.344,2.757-.952,3.934-1.218,2.359-3.496,4.079-6.199,4.533-.466.078-.947.119-1.436.119-.573,0-1.132-.056-1.672-.163-2.647-.522-4.861-2.264-6.027-4.618-.569-1.146-.888-2.438-.888-3.807h0Zm-.609,6.605c.225-.389.395-.683.535-.911,1.281,1.945,3.2,3.433,5.462,4.166l-2.17,3.759c-.155.269-.279.481-.381.65-.066-.18-.143-.404-.239-.685l-.305-.891c-.15-.44-.289-.844-.445-1.164-.172-.352-.413-.701-.821-.937s-.831-.269-1.222-.243c-.354.024-.774.107-1.23.197l-.924.182c-.291.057-.524.103-.712.135.095-.174.217-.387.373-.656l2.081-3.602Zm12.115,3.341c2.28-.668,4.234-2.098,5.566-3.995.108.182.233.397.38.653l2.08,3.604c.155.268.278.482.373.656-.189-.033-.421-.078-.712-.135l-.924-.182c-.456-.089-.876-.172-1.23-.197-.391-.027-.813.007-1.222.243-.409.236-.648.585-.821.937-.156.319-.294.724-.445,1.164l-.304.891c-.096.281-.173.505-.239.685-.103-.169-.227-.382-.381-.65l-2.121-3.674Z" style="fill:#107b96; fill-rule:evenodd;"/></g></svg>