<?xml version="1.0" encoding="UTF-8"?><svg id="Layer_2" xmlns="http://www.w3.org/2000/svg" width="20" height="20" viewBox="0 0 20 20"><g id="Layer_2-2"><path d="m17.071,12.929c-1.089-1.089-2.385-1.895-3.8-2.384,1.515-1.044,2.51-2.789,2.51-4.764,0-3.188-2.593-5.781-5.781-5.781s-5.781,2.593-5.781,5.781c0,1.975.995,3.721,2.51,4.764-1.414.488-2.711,1.294-3.8,2.384-1.889,1.889-2.929,4.4-2.929,7.071h1.563c0-4.653,3.785-8.437,8.437-8.437s8.437,3.785,8.437,8.437h1.563c0-2.671-1.04-5.182-2.929-7.071Zm-7.071-2.929c-2.326,0-4.218-1.893-4.218-4.218S7.674,1.563,10,1.563s4.218,1.893,4.218,4.218-1.892,4.219-4.218,4.219Z" style="fill:#107b96;"/></g></svg>