<?xml version="1.0" encoding="UTF-8"?><svg xmlns="http://www.w3.org/2000/svg" width="80" height="80" viewBox="0 0 80 80"><path d="M40 0C17.944 0 0 17.944 0 40s17.944 40 40 40 40-17.944 40-40S62.056 0 40 0Zm17.781 51.64c-1.581.875-1.706 5.464-1.411 7.246.253 1.53.674 4.948 1.606 7.207.804 1.95 2.242 3.922 1.528 3.918-6.88-.038-20.542.059-27.028 0-1.384-.013.101-4.059-.313-5.327-.267-.818-1.467-2.279-2.272-2.585-1.832-.694-5.968.754-7.834.156-1.122-.359-2.994-2.229-3.291-3.368-.253-.972.839-3.097.392-3.995-.303-.607-1.97-1.201-1.959-1.88.009-.522 1.383-1.245 1.175-1.724-.266-.614-2.203-.343-2.507-.94-.357-.702.675-2.436.313-3.134-.318-.613-1.833-1.034-2.272-1.567-.27-.328-.674-1.302-.424-1.646 1.171-1.6 4.451-3.853 5.204-5.875.744-1.998.352-2.959.313-4.074-.05-1.385-1.094-2.712-1.371-4.622-.276-1.895.212-4.376.509-5.719.441-2.005 3.203-6.732 4.935-7.834.724-.46 5.163-4.317 11.509-5.464 5.991-1.082 14.086-.223 19.091 2.59 6.295 3.536 8.568 6.329 10.819 13.928 2.143 7.236 1.927 13.597-.888 19.139-1.062 2.092-3.279 4.159-5.826 5.57Z" fill="#8b2333"/><path d="M64.494 26.931c-2.251-7.599-4.524-10.392-10.819-13.928-5.005-2.812-13.1-3.672-19.091-2.59-6.346 1.147-10.785 5.004-11.509 5.464-1.732 1.102-4.494 5.829-4.935 7.834-.296 1.343-.785 3.824-.509 5.719.277 1.91 1.322 3.237 1.371 4.622.039 1.115.431 2.076-.313 4.074-.753 2.022-4.032 4.275-5.204 5.875-.251.343.154 1.318.424 1.646.439.533 1.954.954 2.272 1.567.363.698-.67 2.432-.313 3.134.304.597 2.241.326 2.507.94.207.478-1.166 1.202-1.175 1.724-.011.679 1.656 1.273 1.959 1.88.448.898-.645 3.023-.392 3.995.296 1.14 2.169 3.009 3.291 3.368 1.866.598 6.002-.851 7.834-.156.805.305 2.005 1.767 2.272 2.585.413 1.268-1.071 5.314.313 5.327 6.486.059 20.148-.038 27.028 0 .715.004-.724-1.968-1.528-3.918-.932-2.259-1.353-5.677-1.606-7.207-.295-1.782-.17-6.371 1.411-7.246 2.546-1.411 4.763-3.478 5.826-5.57 2.815-5.542 3.031-11.903.888-19.139ZM30.589 37.49c-1.779-.766-4.467-4.234-4.708-6.156-.155-1.243-.155-3.621-2.069-5.588-1.301-1.337 5.729-.258 7.449.466 1.503.632 4.466 2.415 5.277 3.829.781 1.359.602 4.813-.262 6.455l-.43-.824-6.538-5.425 5.411 6.146.589 1.016c-1.297.576-3.692.524-4.72.082Zm11.446 14.458h-1.656l-.71-6.97-4.353-7.555.969-.935 3.783 7.109 2.293-11.401c-1.628-1.133-3.354-4.679-3.082-6.425.273-1.75 1.236-4.922 2.695-6.028 1.748-1.325 9.696-5.585 8.878-3.7-1.203 2.772-.234 5.13.108 6.427.532 2.008-.87 6.601-2.422 8.125-.881.865-3.298 1.925-4.892 1.948l3.923-8.401-5.209 8.052 1.266.382-2.206 11.768.07 6.001 3.419-6.146 1.081-.828.332.478-1.068.781-3.221 7.319Zm16.49-16.111c-1.896 1.43-1.896 3.161-2.05 4.064-.238 1.398-2.901 3.92-4.664 4.477-1.23.388-4.466.374-5.331-.377-.051-.044-.092-.112-.139-.165l.749-.537 6.586-5.812-7.09 5.427-.582.445c-.698-1.273-.803-3.485-.088-4.401.804-1.028 2.639-2.772 4.189-3.09 1.856-.382 9.71-1.006 8.42-.033Z" fill="#fff"/><path d="m34.719 36.391-5.411-6.146 6.538 5.425.43.824c.864-1.643 1.042-5.096.262-6.455-.812-1.413-3.774-3.196-5.277-3.829-1.72-.724-8.75-1.802-7.449-.466 1.914 1.966 1.914 4.345 2.069 5.588.24 1.922 2.928 5.391 4.708 6.156 1.027.442 3.423.494 4.72-.082l-.589-1.016ZM50.104 35.87c-1.549.318-3.385 2.062-4.189 3.09-.715.916-.611 3.128.088 4.401l.582-.445 7.09-5.427-6.586 5.812-.749.537c.048.052.088.121.139.165.865.75 4.101.764 5.331.377 1.763-.557 4.426-3.079 4.664-4.477.154-.903.154-2.634 2.05-4.064 1.29-.973-6.565-.349-8.42.033Z" fill="#a85a66"/><path d="m46.324 43.848-.332-.478-1.081.828-3.419 6.146-.07-6.001 2.206-11.768-1.266-.382 5.209-8.052-3.923 8.401c1.594-.023 4.012-1.083 4.892-1.948 1.552-1.524 2.953-6.117 2.422-8.125-.342-1.297-1.311-3.656-.108-6.427.818-1.885-7.131 2.375-8.878 3.7-1.459 1.105-2.422 4.278-2.695 6.028-.272 1.746 1.453 5.292 3.082 6.425L40.07 43.596l-3.783-7.109-.969.935 4.353 7.555.71 6.97h1.656l3.221-7.319 1.068-.781Z" fill="#a85a66"/></svg>