<?xml version="1.0" encoding="UTF-8"?><svg id="Layer_2" xmlns="http://www.w3.org/2000/svg" width="24" height="24" viewBox="0 0 24 24"><g id="Layer_2-2"><g><path d="m15.98,11.006l1.449-1.449c1.772.633,3.783.197,5.133-1.158,1.284-1.284,1.711-3.113,1.27-4.758-.141-.52-.792-.694-1.177-.309l-2.25,2.25-1.988-1.988,2.25-2.25c.38-.38.211-1.036-.309-1.177-1.645-.441-3.469-.014-4.758,1.27-1.35,1.35-1.786,3.361-1.158,5.133l-1.449,1.449,2.986,2.986Z" style="fill:#4a555d;"/><path d="m8.02,12.994l-1.449,1.449c-1.772-.633-3.783-.197-5.133,1.158-1.284,1.289-1.711,3.113-1.27,4.758.141.52.792.694,1.177.309l2.25-2.25,1.988,1.988-2.25,2.25c-.38.38-.211,1.036.309,1.177,1.645.441,3.469.014,4.758-1.27,1.35-1.35,1.786-3.361,1.158-5.133l1.449-1.449-2.986-2.986Z" style="fill:#4a555d;"/><path d="m22.562,15.6c-1.35-1.35-3.361-1.786-5.133-1.158l-7.871-7.871c.633-1.772.197-3.783-1.158-5.133C7.111.154,5.287-.273,3.642.168c-.52.141-.694.792-.309,1.177l2.25,2.25-1.988,1.988L1.345,3.332c-.38-.38-1.036-.211-1.177.309-.441,1.645-.014,3.469,1.27,4.758,1.35,1.35,3.361,1.786,5.133,1.158l7.871,7.871c-.633,1.772-.197,3.783,1.158,5.133,1.917,1.917,5.044,1.917,6.961,0,1.917-1.917,1.917-5.044,0-6.961h0Zm-2.077,4.06l-.825.825h-1.167l-.82-.825v-1.167l.825-.825h1.167l.825.825v1.167h-.005Z" style="fill:#4a555d;"/></g></g></svg>