<?xml version="1.0" encoding="UTF-8"?><svg xmlns="http://www.w3.org/2000/svg" width="25" height="25" viewBox="0 0 25 25"><defs><style>.st0{fill:#548854}</style></defs><path d="M13.2 12.5v-1.7l-.3-.3h-1.7v1.1l.9.9h1.1z" class="st0"/><path d="M1.3 15.8h14.5c.7 0 1.3-.6 1.3-1.3v-3.8c0-.2 0-.3-.2-.5l-2.6-2.6c-.1-.1-.3-.2-.5-.2H7.9c-.4 0-.7.3-.7.7v3.3H2c-1.1-.1-2 .8-2 1.9v1.2c0 .7.6 1.3 1.3 1.3Zm8.6-5.9c0-.4.3-.7.7-.7h2.6c.2 0 .3 0 .5.2l.7.7c.1.1.2.3.2.5v2.6c0 .4-.3.7-.7.7h-2c-.2 0-.3 0-.5-.2l-1.3-1.3c-.1-.1-.2-.3-.2-.5v-2Z" class="st0"/><path d="M21.7 0h-9.2c-1.8 0-3.3 1.5-3.3 3.3v2.8h3.9V4H21v5.9h3.9V3.3C25 1.5 23.5 0 21.7 0ZM19.2 12.9c.4 1.3 1.7 2.2 3.1 2.2s2.7-1.2 2.7-2.7v-1.2h-6.4l.6 1.7ZM7.2 17.1h7.9v1.3H7.2zM19.7 19.7H2.6c-1.4 0-2.6 1.2-2.6 2.7S1.2 25 2.6 25h17.1c1.5 0 2.6-1.2 2.6-2.6s-1.2-2.6-2.6-2.6ZM3.3 23c-.4 0-.7-.3-.7-.7s.3-.7.7-.7.7.3.7.7-.3.7-.7.7Zm2.6 0c-.4 0-.7-.3-.7-.7s.3-.7.7-.7.7.3.7.7-.3.7-.7.7Zm7.9 0H8.5c-.4 0-.7-.3-.7-.7s.3-.7.7-.7h5.3c.4 0 .7.3.7.7s-.3.7-.7.7Zm2.6 0c-.4 0-.7-.3-.7-.7s.3-.7.7-.7.7.3.7.7-.3.7-.7.7Zm2.7 0c-.4 0-.7-.3-.7-.7s.3-.7.7-.7.7.3.7.7-.3.7-.7.7Z" class="st0"/></svg>