<?xml version="1.0" encoding="UTF-8"?><svg id="Layer_2" xmlns="http://www.w3.org/2000/svg" width="89" height="74.237" viewBox="0 0 89 74.237"><g id="Layer_2-2"><g><path d="m87.257,14.93L45.366.149c-.562-.199-1.174-.199-1.734,0L1.74,14.93C.697,15.298.002,16.28,0,17.386c-.002,1.104.694,2.09,1.734,2.46l41.892,14.893c.282.1.578.151.873.151s.592-.051.873-.151l41.892-14.893c1.041-.37,1.734-1.356,1.734-2.46-.004-1.104-.701-2.088-1.743-2.456Z" style="fill:#66b5cf;"/><path d="m82.735,49.733v-22.743l-5.216,1.854v20.889c-1.571.903-2.629,2.597-2.629,4.541s1.058,3.636,2.629,4.541v12.814c0,1.44,1.167,2.608,2.608,2.608s2.608-1.167,2.608-2.608v-12.814c1.571-.903,2.629-2.599,2.629-4.541s-1.058-3.636-2.629-4.541Z" style="fill:#66b5cf;"/><path d="m44.498,40.104c-.895,0-1.777-.151-2.62-.453l-23.55-8.373v11.474c0,2.807,2.928,5.18,8.704,7.056,5.034,1.634,11.238,2.534,17.466,2.534s12.432-.9,17.466-2.534c5.776-1.875,8.704-4.249,8.704-7.056v-11.474l-23.549,8.373c-.843.299-1.726.453-2.62.453Z" style="fill:#66b5cf;"/></g></g></svg>