<?xml version="1.0" encoding="UTF-8"?><svg id="Layer_2" xmlns="http://www.w3.org/2000/svg" width="25" height="25" viewBox="0 0 25 25"><g id="Layer_2-2"><g><rect x="7.5" y="7.5" width="10" height="10" style="fill:#b8414a;"/><path d="m23.75,13.75c.752,0,1.25-.498,1.25-1.25,0-.625-.498-1.25-1.25-1.25h-1.25v-2.5h1.25c.752,0,1.25-.498,1.25-1.25,0-.625-.498-1.25-1.25-1.25h-1.25v-1.25c0-1.377-1.123-2.5-2.5-2.5h-1.25v-1.25c0-.625-.498-1.25-1.25-1.25-.625,0-1.25.498-1.25,1.25v1.25h-2.5v-1.25c0-.625-.498-1.25-1.25-1.25s-1.25.498-1.25,1.25v1.25h-2.5v-1.25c0-.625-.498-1.25-1.25-1.25s-1.25.498-1.25,1.25v1.25h-1.25c-1.377,0-2.5,1.123-2.5,2.5v1.25h-1.25c-.752,0-1.25.498-1.25,1.25,0,.625.498,1.25,1.25,1.25h1.25v2.5h-1.25c-.752,0-1.25.498-1.25,1.25,0,.625.498,1.25,1.25,1.25h1.25v2.5h-1.25c-.752,0-1.25.498-1.25,1.25,0,.625.498,1.25,1.25,1.25h1.25v1.25c0,1.377,1.123,2.5,2.5,2.5h1.25v1.25c0,.625.498,1.25,1.25,1.25s1.25-.498,1.25-1.25v-1.25h2.5v1.25c0,.625.498,1.25,1.25,1.25s1.25-.498,1.25-1.25v-1.25h2.5v1.25c0,.625.498,1.25,1.25,1.25.625,0,1.25-.498,1.25-1.25v-1.25h1.25c1.377,0,2.5-1.123,2.5-2.5v-1.25h1.25c.752,0,1.25-.498,1.25-1.25,0-.625-.498-1.25-1.25-1.25h-1.25v-2.5h1.25Zm-3.75,6.25H5V5h15v15Z" style="fill:#b8414a;"/></g></g></svg>