<?xml version="1.0" encoding="UTF-8"?><svg xmlns="http://www.w3.org/2000/svg" width="80" height="80" viewBox="0 0 80 80"><path d="M59.445 46.17a55.366 55.366 0 0 0 3.649-4.8 12.927 12.927 0 0 0 1.062-5.678 12.726 12.726 0 0 0-.935-4.266c-.303-.745-1.037-2.147-2.569-3.186-1.75-1.185-3.551-1.254-4.471-1.188a8.352 8.352 0 0 0-4.136 1.174 8.269 8.269 0 0 0-3.009 3.144c.477 1.365.764 2.781.827 4.225s0 .005 0 .008v.001c.018.423 0 .847-.02 1.27-.006.139.004.277-.007.416a15.024 15.024 0 0 1-1.226 4.928l-.011.03-.004.01-.085.155a57.527 57.527 0 0 1-3.834 5.052c-.922 1.084-2.042 2.217-3.201 3.312 2.751 2.447 5.529 4.583 6.67 5.441 1.837-1.381 7.919-6.075 11.299-10.049ZM35.324 47.466a57.357 57.357 0 0 1-3.835-5.052l-.085-.155a14.951 14.951 0 0 1-1.268-6.654c.019-.426.056-.85.111-1.271a14.7 14.7 0 0 1 .717-2.963 8.278 8.278 0 0 0-3.011-3.145 8.282 8.282 0 0 0-4.084-1.171c-.97-.066-2.772 0-4.522 1.186-1.528 1.036-2.266 2.44-2.569 3.185a12.75 12.75 0 0 0-.935 4.266 12.944 12.944 0 0 0 1.062 5.678 55.442 55.442 0 0 0 3.65 4.8c3.372 3.964 9.461 8.665 11.299 10.048 1.141-.858 3.919-2.993 6.67-5.441-1.159-1.095-2.28-2.228-3.202-3.312Z" fill="#117c95"/><path d="M40 0C17.944 0 0 17.944 0 40s17.944 40 40 40 40-17.944 40-40S62.056 0 40 0Zm8.689 58.301c-.185.119-.323.208-.543.185-.024.002-.048.004-.07.004-.18 0-.309-.083-.473-.189l.011-.016c-.695-.384-1.954-1.381-4.629-3.587a99.713 99.713 0 0 1-2.984-2.561 101.29 101.29 0 0 1-2.985 2.562c-2.652 2.188-3.914 3.187-4.612 3.578l.01.015c-.179.121-.315.213-.505.213a.69.69 0 0 1-.13-.013c-.177-.001-.305-.084-.467-.189l.002-.002c-.693-.387-1.944-1.395-4.619-3.602-2.312-1.908-5.519-4.711-7.662-7.231a57.357 57.357 0 0 1-3.835-5.052l-.085-.155a14.951 14.951 0 0 1-1.268-6.654 14.766 14.766 0 0 1 1.081-4.934 9.04 9.04 0 0 1 3.3-4.086c2.248-1.524 4.562-1.613 5.733-1.528a10.224 10.224 0 0 1 7.895 4.022c.421-.551.964-1.124 1.62-1.668.015-.014.025-.028.041-.042.04-.033.073-.055.111-.086a8.86 8.86 0 0 1 .891-.699c2.056-1.394 4.155-1.585 5.398-1.542l.122-.005.071.004a9.075 9.075 0 0 1 5.376 1.543c.309.209.584.432.845.659.039.031.075.055.115.088l.077.075c.659.545 1.204 1.12 1.626 1.672a10.213 10.213 0 0 1 2.872-2.568 10.295 10.295 0 0 1 5.074-1.456c1.118-.082 3.433.006 5.682 1.53 1.971 1.335 2.914 3.134 3.301 4.088a14.743 14.743 0 0 1 1.08 4.932 14.932 14.932 0 0 1-1.268 6.654l-.085.155a57.527 57.527 0 0 1-3.834 5.052c-2.144 2.521-5.35 5.324-7.661 7.231-2.674 2.207-3.934 3.203-4.629 3.587l.011.016Z" fill="#117c95"/><path d="M46.852 31.245a7.272 7.272 0 0 0-.348-.68c-.04-.07-.077-.138-.121-.209a7.894 7.894 0 0 0-.728-.971 6.73 6.73 0 0 0-.591-.589l-.006-.005a8.23 8.23 0 0 0-.649-.457c-.056-.036-.107-.073-.164-.108a8.288 8.288 0 0 0-4.085-1.171l-.163-.007c-.034.002-.074.002-.105.005a8.352 8.352 0 0 0-4.136 1.174c-.187.112-.363.23-.531.349a11.782 11.782 0 0 0-.288.219c-.084.075-.17.15-.248.227-.088.086-.167.173-.248.26a7.416 7.416 0 0 0-.826 1.077 7.468 7.468 0 0 0-.235.407c-.047.088-.086.169-.125.25a7.077 7.077 0 0 0-.135.293c-.016.038-.037.081-.051.117-.29.713-.511 1.444-.668 2.188-.143.68-.234 1.371-.264 2.068a12.93 12.93 0 0 0 1.062 5.679 55.372 55.372 0 0 0 3.649 4.801c.82.966 1.88 2.058 3.154 3.255 1.275-1.199 2.334-2.292 3.153-3.256a55.095 55.095 0 0 0 3.649-4.799c.583-1.349.935-2.79 1.039-4.236v-.014c.034-.475.041-.95.021-1.422a12.757 12.757 0 0 0-.934-4.264c-.022-.055-.052-.12-.079-.182Z" fill="#4d9db0"/><path d="M33.627 27.284c-.039.031-.071.053-.111.086l-.041.042c.044-.037.087-.074.133-.111l.019-.017ZM49.864 35.596a14.704 14.704 0 0 0-.827-4.225l-.002.003c.478 1.366.765 2.784.829 4.23v-.007ZM49.838 37.291c.01-.139 0-.277.007-.416-.006.139.004.277-.007.416ZM30.966 31.373l-.001-.002a14.751 14.751 0 0 1 .001.002ZM48.612 42.219l-.011.03.011-.03ZM46.521 27.407l-.077-.075c-.04-.032-.076-.057-.115-.088l.032.029c.056.044.107.089.161.134ZM40.108 25.042l-.071-.004-.122.005.084.004.109-.005ZM33.12 31.309ZM45.264 28.978ZM46.384 30.356c.044.072.082.139.121.209-.04-.07-.077-.137-.121-.209ZM33.381 30.766ZM46.764 31.052ZM34.441 29.283c.081-.087.16-.175.248-.26-.088.086-.167.173-.248.26ZM33.846 30.015c.04-.057.083-.114.126-.171-.043.058-.086.115-.126.171ZM43.156 46.162c-.819.964-1.878 2.057-3.153 3.256-1.274-1.197-2.334-2.29-3.154-3.255a55.172 55.172 0 0 1-3.649-4.801 12.913 12.913 0 0 1-1.062-5.679 12.689 12.689 0 0 1-.002.01 12.944 12.944 0 0 0 1.062 5.678 55.442 55.442 0 0 0 3.65 4.8c.902 1.061 1.998 2.172 3.153 3.258 1.155-1.086 2.251-2.197 3.153-3.258a55.366 55.366 0 0 0 3.649-4.8 13.012 13.012 0 0 0 .002-.008 55.143 55.143 0 0 1-3.649 4.799ZM44.409 28.334ZM34.959 28.779c.09-.07.18-.14.266-.202-.093.066-.178.135-.266.202ZM45.968 29.765ZM47.866 35.692v-.001a12.5 12.5 0 0 1 0 .001Z" fill="#fff"/><path d="M60.969 47.466a57.527 57.527 0 0 0 3.834-5.052l.085-.155a14.951 14.951 0 0 0 1.268-6.654 14.778 14.778 0 0 0-1.08-4.933c-.387-.954-1.33-2.753-3.301-4.088-2.249-1.523-4.563-1.611-5.682-1.53a10.228 10.228 0 0 0-7.946 4.024 10.338 10.338 0 0 0-1.626-1.672c-.054-.045-.105-.09-.161-.134l-.032-.029a8.64 8.64 0 0 0-.845-.659 9.075 9.075 0 0 0-5.376-1.543l-.109.005-.084-.004c-1.243-.042-3.342.148-5.398 1.542a8.975 8.975 0 0 0-.891.699l-.019.017c-.046.037-.088.074-.133.111a10.396 10.396 0 0 0-1.62 1.668 10.222 10.222 0 0 0-7.895-4.022c-1.172-.085-3.485.004-5.733 1.528a9.04 9.04 0 0 0-3.3 4.086 14.741 14.741 0 0 0-1.081 4.934 14.938 14.938 0 0 0 1.268 6.654l.085.155a57.357 57.357 0 0 0 3.835 5.052c2.144 2.52 5.35 5.323 7.662 7.231 2.675 2.207 3.926 3.215 4.619 3.602l-.002.002c.162.105.29.188.467.189a.69.69 0 0 0 .13.013c.189 0 .326-.092.505-.213l-.01-.015c.698-.391 1.96-1.389 4.612-3.578A99.588 99.588 0 0 0 40 52.135a99.713 99.713 0 0 0 2.984 2.561c2.675 2.207 3.934 3.203 4.629 3.587l-.011.016c.164.106.293.189.473.189a.569.569 0 0 0 .07-.004c.22.022.358-.066.543-.185l-.011-.016c.695-.384 1.955-1.38 4.629-3.587 2.312-1.908 5.518-4.71 7.661-7.231ZM47.866 35.692c.02.472.012.947-.021 1.421v.014a13.044 13.044 0 0 1-1.041 4.244 55.414 55.414 0 0 1-3.649 4.8c-.902 1.061-1.998 2.172-3.153 3.258-1.155-1.086-2.251-2.197-3.153-3.258a55.241 55.241 0 0 1-3.65-4.8 12.93 12.93 0 0 1-1.062-5.678c.03-.701.122-1.395.266-2.078.157-.744.378-1.476.668-2.188.014-.035.035-.079.051-.117.039-.091.084-.188.135-.293.039-.081.078-.162.125-.25a7.294 7.294 0 0 1 .466-.752c.04-.057.083-.114.126-.171.139-.186.296-.373.469-.561.08-.087.16-.174.248-.26.078-.077.164-.151.248-.227a.326.326 0 0 1 .022-.017c.088-.068.173-.136.266-.202.169-.12.345-.237.531-.349a8.352 8.352 0 0 1 4.136-1.174l.105-.005c.054.003.114.003.163.007a8.288 8.288 0 0 1 4.085 1.171c.058.035.108.073.164.108.231.146.447.299.649.457l.006.005c.068.06.136.121.2.182a7.377 7.377 0 0 1 1.119 1.378c.045.072.081.139.121.209.099.173.187.337.259.487.033.068.061.131.089.193.027.062.057.127.079.182.556 1.366.871 2.8.934 4.264v.001ZM31.855 56.219c-1.838-1.383-7.927-6.084-11.299-10.048a55.241 55.241 0 0 1-3.65-4.8 12.93 12.93 0 0 1-1.062-5.678c.063-1.464.378-2.899.935-4.266.304-.745 1.041-2.149 2.569-3.185 1.75-1.185 3.553-1.252 4.522-1.186a8.282 8.282 0 0 1 4.084 1.171 8.285 8.285 0 0 1 3.012 3.147 14.751 14.751 0 0 0-.718 2.961c-.055.421-.092.845-.111 1.271a14.938 14.938 0 0 0 1.268 6.654l.085.155a57.357 57.357 0 0 0 3.835 5.052c.922 1.084 2.043 2.217 3.202 3.312-2.751 2.447-5.53 4.583-6.67 5.441Zm16.291 0c-1.141-.858-3.919-2.994-6.67-5.441 1.159-1.095 2.28-2.228 3.201-3.312a57.527 57.527 0 0 0 3.834-5.052l.085-.155.004-.01.011-.03a15.024 15.024 0 0 0 1.226-4.928c.01-.139 0-.277.007-.416.019-.424.038-.847.02-1.27s0-.001 0-.002a14.706 14.706 0 0 0-.829-4.23l.002-.003a8.277 8.277 0 0 1 3.009-3.144 8.352 8.352 0 0 1 4.136-1.174c.92-.066 2.721.003 4.471 1.188a7.135 7.135 0 0 1 2.569 3.186 12.74 12.74 0 0 1 .935 4.266 12.942 12.942 0 0 1-1.062 5.678 55.414 55.414 0 0 1-3.649 4.8c-3.38 3.974-9.462 8.668-11.299 10.049Z" fill="#fff"/></svg>