<?xml version="1.0" encoding="UTF-8"?><svg id="Layer_2" xmlns="http://www.w3.org/2000/svg" width="23" height="28.12" viewBox="0 0 23 28.12"><g id="Layer_2-2"><path d="m22.447,13.34c-.371-.371-.825-.56-1.357-.56h-.637v-3.833c0-2.448-.881-4.554-2.637-6.31-1.763-1.756-3.868-2.637-6.317-2.637s-4.554.881-6.31,2.637c-1.756,1.756-2.637,3.861-2.637,6.31v3.833h-.637c-.532,0-.986.189-1.357.56-.371.371-.56.825-.56,1.357v11.507c0,.532.189.986.56,1.357s.825.56,1.357.56h19.167c.532,0,.986-.189,1.357-.56s.56-.825.56-1.357v-11.507c.007-.532-.182-.979-.553-1.357Zm-5.834-.56H6.387v-3.833c0-1.413.497-2.616,1.497-3.616,1-.993,2.203-1.497,3.616-1.497s2.616.497,3.616,1.497c1,1,1.497,2.203,1.497,3.616v3.833Z" style="fill:#d99f51;"/></g></svg>