<?xml version="1.0" encoding="UTF-8"?><svg id="Layer_2" xmlns="http://www.w3.org/2000/svg" width="21" height="18.949" viewBox="0 0 21 18.949"><g id="Layer_2-2"><g id="g15"><g id="g17"><g id="g19"><g id="g25"><path d="m19.77,14.683H1.23c-.679,0-1.23-.552-1.23-1.23V1.23C0,.551.552,0,1.23,0h18.54c.679,0,1.23.552,1.23,1.23v12.223c0,.678-.552,1.23-1.23,1.23ZM1.229,1.229v12.223h18.541V1.229H1.229Z" style="fill:#107b96;"/></g><path d="m13.125,18.949h-5.251c-.339,0-.615-.276-.615-.615v-4.266c0-.339.276-.615.615-.615h5.25c.339,0,.615.276.615.615v4.266c.001.339-.274.615-.614.615Zm-4.635-1.23h4.02v-3.035h-4.02v3.035Z" style="fill:#107b96;"/><g id="g31"><path d="m17.062,18.949H3.937c-.339,0-.615-.276-.615-.615s.276-.615.615-.615h13.125c.339,0,.615.276.615.615s-.274.615-.615.615Z" style="fill:#107b96;"/></g></g></g></g></g></svg>