<?xml version="1.0" encoding="UTF-8"?><svg id="Layer_2" xmlns="http://www.w3.org/2000/svg" width="18" height="28.806" viewBox="0 0 18 28.806"><g id="Layer_2-2"><g><path d="m4.762,20.657c.063.488.121.919.121,1.407h8.207c0-.488.063-.982.121-1.407H4.762Z" style="fill:#487890;"/><path d="m4.883,23.293v2.142c0,.368.247.615.615.615h.184c.304,1.533,1.717,2.757,3.308,2.757,1.654,0,3.004-1.166,3.308-2.757h.184c.368,0,.615-.247.615-.615v-2.142H4.883Z" style="fill:#487890;"/><path d="m8.501.01C4.153.257.535,3.686.047,8.033c-.247,2.452.488,4.841,2.022,6.679,1.166,1.407,2.022,3.004,2.452,4.658h8.942c.431-1.654,1.286-3.308,2.452-4.715,1.35-1.591,2.085-3.612,2.085-5.697C17.994,3.87,13.647-.231,8.501.01h0Z" style="fill:#487890;"/></g></g></svg>