<?xml version="1.0" encoding="UTF-8"?><svg id="Layer_2" xmlns="http://www.w3.org/2000/svg" width="20" height="28.446" viewBox="0 0 20 28.446"><g id="Layer_2-2"><g id="Layer_1-2"><g><path d="m10.001,0C4.487,0,0,4.487,0,10.001c0,1.864.516,3.681,1.493,5.259l7.938,12.792c.151.245.419.394.708.394h.007c.29-.002.559-.156.708-.405l7.735-12.916c.922-1.544,1.411-3.316,1.411-5.124,0-5.514-4.485-10.001-9.999-10.001h0Zm7.16,14.268l-7.033,11.743L2.911,14.381c-.813-1.313-1.253-2.828-1.253-4.381-.001-4.594,3.749-8.344,8.344-8.344s8.338,3.749,8.338,8.344c0,1.507-.412,2.983-1.18,4.268h0Z" style="fill:#107b96;"/><path d="m10.001,5c-2.757,0-5,2.243-5,5,0,2.74,2.206,5,5,5,2.828,0,5-2.291,5-5,0-2.757-2.243-5-5-5h0Zm0,8.344c-1.847,0-3.344-1.501-3.344-3.344s1.506-3.344,3.344-3.344,3.339,1.506,3.339,3.344c0,1.816-1.462,3.344-3.339,3.344h0Z" style="fill:#107b96;"/></g></g></g></svg>