<?xml version="1.0" encoding="UTF-8"?><svg xmlns="http://www.w3.org/2000/svg" width="76" height="76" viewBox="0 0 76 76"><circle cx="38" cy="38" r="38" fill="#604070"/><path d="M28.431 51.048H12.08a.83.83 0 0 1-.829-.829v-5.107a.83.83 0 0 1 .829-.829h16.351a.83.83 0 0 1 .829.829v5.107a.83.83 0 0 1-.83.829ZM28.431 60.759H12.08a.83.83 0 0 1-.829-.829v-5.107a.83.83 0 0 1 .829-.829h16.351a.83.83 0 0 1 .829.829v5.107a.83.83 0 0 1-.83.829ZM64.836 59.109h-16.35a.83.83 0 0 1-.829-.829v-5.107a.83.83 0 0 1 .829-.829h16.351a.83.83 0 0 1 .829.829v5.107a.83.83 0 0 1-.83.829Z" style="isolation:isolate" fill="#dedfe0" opacity=".3"/><path fill="#fff" d="M44.204 58.473h-9.078l1.527-26.714.019-.349h5.521l2.011 27.063z"/><path d="M36.195 31.56c-.417-.175-1.028-.907-1.268-1.29-.443-.703-1.134-2.22-1.518-2.957-.326-.625-.957-1.898-1.393-2.452-.305-.387-1.384-.874-1.418-1.365-.014-.209.343-.591.548-.632.447-.089 1.401.183 1.766.455.34.253.793.994 1.069 1.315.355.413 1.049 1.539 1.592 1.491.178-.015.414-.38.448-.557.435-2.248-1.407-6.935-.747-9.126.058-.191.349-.562.548-.582.166-.016.506.162.597.304.858 1.338.995 5.309 1.319 6.219.048.135.539.165.572.025.411-1.756-.397-5.589.229-7.306.078-.214.463-.598.691-.591.236.008.7.316.771.54.572 1.82-.355 5.899 0 7.382.023.093.322.156.373.076.895-1.409.632-4.984 1.393-6.446.089-.171.433-.495.622-.455.236.049.555.52.597.758.286 1.657-1.082 5.069-.87 6.669.01.077.207.246.249.181.771-1.16 1.217-4.215 2.115-5.334.096-.12.436-.298.572-.228.132.069.229.407.224.557-.05 1.591-1.232 4.613-1.567 6.169-.263 1.224-.222 3.764-.523 4.98-.144.583-.97 2.199-.97 2.199s-4.634.582-6.021.001ZM53.25 31.957c-.417-.175-1.028-.907-1.268-1.29-.443-.703-1.134-2.22-1.518-2.957-.326-.625-.957-1.898-1.393-2.452-.305-.387-1.384-.874-1.418-1.365-.014-.209.343-.591.548-.632.447-.089 1.401.183 1.766.455.34.253.793.994 1.069 1.315.355.413 1.049 1.539 1.592 1.491.178-.015.414-.38.448-.557.435-2.248-1.407-6.935-.747-9.126.058-.191.349-.562.548-.582.166-.016.506.162.597.304.858 1.338.995 5.309 1.319 6.219.048.135.539.165.572.025.411-1.756-.397-5.589.229-7.306.078-.214.463-.598.691-.591.236.008.7.316.771.54.572 1.82-.355 5.899 0 7.382.023.093.322.156.373.076.895-1.409.632-4.984 1.393-6.446.089-.171.433-.495.622-.455.236.049.555.52.597.758.286 1.657-1.082 5.069-.87 6.669.01.077.207.246.249.181.771-1.16 1.217-4.215 2.115-5.334.096-.12.436-.298.572-.228.132.069.229.407.224.557-.05 1.591-1.232 4.613-1.567 6.169-.263 1.224-.222 3.764-.523 4.98-.144.583-.97 2.199-.97 2.199s-4.634.582-6.021.001ZM23.078 31.957c.417-.175 1.028-.907 1.268-1.29.443-.703 1.134-2.22 1.518-2.957.326-.625.957-1.898 1.393-2.452.305-.387 1.384-.874 1.418-1.365.014-.209-.343-.591-.548-.632-.447-.089-1.401.183-1.766.455-.34.253-.793.994-1.069 1.315-.355.413-1.049 1.539-1.592 1.491-.178-.015-.414-.38-.448-.557-.435-2.248 1.407-6.935.747-9.126-.058-.191-.349-.562-.548-.582-.166-.016-.506.162-.597.304-.858 1.338-.995 5.309-1.319 6.219-.048.135-.539.165-.572.025-.411-1.756.397-5.589-.229-7.306-.078-.214-.463-.598-.691-.591-.236.008-.7.316-.771.54-.572 1.82.355 5.899 0 7.382-.023.093-.322.156-.373.076-.895-1.409-.632-4.984-1.393-6.446-.089-.171-.433-.495-.622-.455-.236.049-.555.52-.597.758-.286 1.657 1.082 5.069.87 6.669-.01.077-.207.246-.249.181-.771-1.16-1.217-4.215-2.115-5.334-.096-.12-.436-.298-.572-.228-.132.069-.229.407-.224.557.05 1.591 1.232 4.613 1.567 6.169.263 1.224.222 3.764.523 4.98.144.583.97 2.199.97 2.199s4.634.582 6.021.001Z" fill="#fff"/><path fill="#fff" d="M61.201 49.398h-9.079l1.528-18.28.02-.238h5.519l2.012 18.518zM24.064 41.337h-7.618l1.282-9.488.017-.125h4.631l1.688 9.613z"/></svg>