<?xml version="1.0" encoding="UTF-8"?><svg xmlns="http://www.w3.org/2000/svg" width="80" height="80" viewBox="0 0 80 80"><path d="M68.284 11.716C60.729 4.161 50.684 0 40 0S19.271 4.161 11.716 11.716 0 29.316 0 40s4.161 20.729 11.716 28.284S29.316 80 40 80s20.729-4.161 28.284-11.716S80 50.684 80 40s-4.161-20.729-11.716-28.284Z" fill="#d71e44"/><path d="M45.062 26.779c.404-.334.855-.658 1.38-.709.843-.08 1.564.556 2.162 1.144 5.437 5.353 10.497 11.616 15.933 16.969.397.392 1.427-.971 1.761-1.416 4.235-5.658 3.546-14.267-1.367-19.368S51.509 17.1 45.218 20.432c-2.736 1.448-5.008 3.601-7.211 5.755a340.898 340.898 0 0 0-7.643 7.711c2.323 1.896 5.95 1.023 8.333-.799s4.054-4.408 6.364-6.32Z" fill="#e15673"/><path d="M64.711 44.52a.5.5 0 0 1-.36-.147c-2.724-2.682-5.395-5.637-7.977-8.495-2.578-2.852-5.243-5.802-7.956-8.473-.562-.553-1.221-1.138-1.95-1.069-.45.043-.86.337-1.235.649-1.073.888-2.028 1.948-2.952 2.973-1.052 1.168-2.14 2.375-3.421 3.354-2.472 1.89-6.242 2.77-8.663.794l-.224-.183.2-.208c2.496-2.6 5.07-5.196 7.649-7.717 2.381-2.327 4.571-4.37 7.273-5.8 6.464-3.424 15.075-2.126 20.03 3.017 2.429 2.522 3.916 5.946 4.188 9.64.273 3.718-.721 7.295-2.8 10.072-.815 1.085-1.341 1.56-1.759 1.591l-.043.002Zm-18.12-18.723c.876 0 1.593.629 2.201 1.228 2.724 2.682 5.395 5.637 7.977 8.496 2.575 2.85 5.239 5.797 7.949 8.466.063-.003.398-.089 1.368-1.38 2.001-2.674 2.958-6.123 2.694-9.713-.262-3.571-1.697-6.877-4.04-9.31-4.796-4.979-13.134-6.233-19.396-2.916-2.639 1.396-4.799 3.412-7.15 5.71a345.172 345.172 0 0 0-7.43 7.489c2.214 1.567 5.545.723 7.772-.98 1.241-.949 2.312-2.138 3.348-3.287.936-1.039 1.905-2.114 3.008-3.026.441-.366.931-.712 1.525-.769.059-.006.117-.008.174-.008Z" fill="#fff"/><path d="M51.192 59.272c1.067-1.427-.273-3.371-1.537-4.625l-9.358-9.279c-.722-.717-1.473-1.878-.791-2.632.731-.809 2.033-.013 2.792.769l8.593 8.859c.833.858 1.709 1.745 2.84 2.133 1.131.386 2.59.097 3.151-.961.761-1.435-.484-3.079-1.636-4.222l-9.697-9.619c-.497-.493-1.038-1.13-.859-1.808.18-.686 1.055-.983 1.737-.789s1.206.727 1.696 1.239c2.691 2.812 5.382 5.625 8.075 8.437.875.914 1.802 1.862 3.008 2.246 1.206.384 2.762-.021 3.233-1.196.552-1.372-.58-2.799-1.623-3.847-4.231-4.673-9.62-10.928-14.052-15.382-.542-.545-4.066 4.287-5.654 5.482-1.187.894-3.768 2.411-4.976 2.798-3.52 1.126-7.948.044-9.692-3.217a627.632 627.632 0 0 0 11.889-11.982c-3.811-4.142-10.102-5.75-15.467-4.057s-9.571 6.548-10.607 12.083c-1.036 5.535 1.08 11.525 5.282 15.27.5.445 1.356.831 1.748.288 1.792-1.705 4.704-4.578 6.933-4.344.801.084 1.816.626 2.259.863.754.405 16.394 15.255 18.307 17.533 1.099 1.174 3.44 1.25 4.406-.04Z" fill="#e15673"/><path d="M49.058 60.482c-.956 0-1.886-.369-2.466-.988l-.009-.011c-1.922-2.289-17.489-17.045-18.23-17.471-.421-.225-1.411-.754-2.16-.832-2.023-.212-4.722 2.365-6.509 4.07l-.195.186a.888.888 0 0 1-.625.349c-.53.059-1.123-.279-1.5-.615-4.307-3.838-6.413-9.93-5.367-15.518 1.057-5.647 5.393-10.585 10.789-12.288 2.689-.849 5.615-.905 8.463-.164 2.864.746 5.381 2.23 7.28 4.294l.17.185-.175.181a627.39 627.39 0 0 1-11.749 11.845c1.801 3.112 6.096 3.934 9.279 2.916 1.137-.363 3.685-1.844 4.897-2.757.645-.485 1.647-1.622 2.617-2.721 1.742-1.974 2.559-2.841 3.071-2.857a.409.409 0 0 1 .314.121c3.201 3.217 6.971 7.451 10.298 11.186 1.329 1.492 2.584 2.902 3.763 4.205 1.013 1.018 2.3 2.565 1.672 4.126-.546 1.36-2.274 1.76-3.561 1.351-1.297-.413-2.266-1.424-3.12-2.316l-8.075-8.437c-.443-.463-.946-.987-1.576-1.167a1.358 1.358 0 0 0-1.011.117.804.804 0 0 0-.396.483c-.141.537.32 1.085.789 1.551l4.972 4.932 4.725 4.687c1.778 1.764 2.344 3.29 1.684 4.536-.639 1.205-2.267 1.499-3.472 1.088-1.215-.416-2.134-1.364-2.945-2.199l-8.593-8.859c-.462-.475-1.215-1.026-1.829-1.026h-.018a.73.73 0 0 0-.557.251c-.524.579.094 1.582.782 2.265l4.847 4.807 4.51 4.472c.912.905 2.889 3.201 1.563 4.974-.46.615-1.242.995-2.145 1.045a3.431 3.431 0 0 1-.202.006Zm-2.072-1.348c.516.547 1.375.858 2.245.81.745-.041 1.382-.344 1.748-.832.418-.559.443-1.269.075-2.111-.379-.865-1.072-1.655-1.587-2.166l-4.51-4.472-4.848-4.807c-.896-.889-1.576-2.144-.801-3 .25-.276.567-.419.942-.426.78-.013 1.672.604 2.239 1.188l8.593 8.859c.769.793 1.642 1.691 2.735 2.066.993.339 2.323.12 2.829-.833.538-1.014.003-2.329-1.588-3.908l-4.725-4.687-4.972-4.932c-.544-.539-1.141-1.261-.929-2.065.089-.339.313-.62.647-.81a1.91 1.91 0 0 1 1.421-.167c.769.219 1.349.825 1.815 1.311 2.691 2.812 5.382 5.625 8.075 8.437.81.846 1.729 1.805 2.897 2.176 1.065.339 2.486.001 2.905-1.042.51-1.269-.648-2.64-1.564-3.56-1.19-1.313-2.445-2.724-3.775-4.217-3.307-3.714-7.052-7.92-10.234-11.121-.41.128-1.753 1.65-2.652 2.669-.988 1.12-2.009 2.277-2.697 2.795-1.136.855-3.759 2.424-5.055 2.839-3.45 1.104-8.137.154-10.008-3.345l-.094-.176.142-.14a628.619 628.619 0 0 0 11.707-11.795c-1.808-1.893-4.172-3.259-6.85-3.956-2.751-.716-5.576-.662-8.169.156-5.214 1.646-9.403 6.419-10.425 11.878-1.013 5.409 1.027 11.305 5.198 15.022.355.316.802.514 1.088.483a.357.357 0 0 0 .267-.152l.032-.037.212-.202c1.859-1.773 4.668-4.451 6.933-4.215.853.089 1.907.653 2.357.893.921.495 16.699 15.596 18.381 17.591Z" fill="#fff"/><path d="M28.516 44.586c.981 1.094.943 2.735-.085 3.684l-2.602 2.402c-1.064.982-2.771.839-3.762-.314l-.033-.039c-.951-1.107-.885-2.734.151-3.661l2.635-2.362c1.051-.946 2.707-.814 3.697.29Z" fill="#e15673"/><path d="M24.142 51.59a3.032 3.032 0 0 1-2.277-1.06l-.033-.038c-1.038-1.208-.96-3.017.175-4.033l2.635-2.362a2.738 2.738 0 0 1 1.998-.696c.795.043 1.532.4 2.075 1.007 1.072 1.196 1.026 3.016-.103 4.057l-2.602 2.402a2.73 2.73 0 0 1-1.868.723Zm2.342-7.661c-.556 0-1.08.198-1.486.563l-2.635 2.362c-.92.824-.977 2.299-.126 3.289l.033.038a2.497 2.497 0 0 0 1.734.871 2.214 2.214 0 0 0 1.646-.578l2.602-2.402c.916-.845.946-2.33.068-3.31a2.462 2.462 0 0 0-1.834-.833Z" fill="#fff"/><path d="M45.19 61.18c.877.977.889 2.402.027 3.199l-2.181 2.016c-.891.825-2.369.654-3.256-.376l-.029-.035c-.851-.989-.837-2.399.031-3.177l2.21-1.981c.882-.791 2.314-.631 3.199.354Z" fill="#e15673"/><path d="M41.667 67.183c-.047 0-.095-.001-.142-.004-.732-.041-1.442-.401-1.946-.987l-.031-.037c-.952-1.105-.928-2.665.056-3.547l2.21-1.981c.483-.434 1.124-.632 1.806-.556a2.804 2.804 0 0 1 1.769.93c.969 1.079.973 2.682.009 3.572l-2.181 2.016a2.26 2.26 0 0 1-1.55.593Zm1.672-6.595a1.73 1.73 0 0 0-1.169.435l-2.21 1.981c-.753.676-.756 1.934-.007 2.805l.031.037c.409.475.982.767 1.571.801.498.028.958-.131 1.3-.449l2.181-2.016c.751-.694.731-1.961-.044-2.825a2.273 2.273 0 0 0-1.431-.757 2.092 2.092 0 0 0-.222-.012Z" fill="#fff"/><path d="M33.948 50.149c.981 1.094.943 2.735-.085 3.684l-2.602 2.402c-1.064.982-2.771.839-3.762-.314l-.033-.039c-.951-1.107-.885-2.734.151-3.661l2.635-2.362c1.052-.946 2.707-.814 3.697.29Z" fill="#e15673"/><path d="M29.573 57.154a3.032 3.032 0 0 1-2.277-1.06l-.033-.038c-1.038-1.208-.96-3.017.175-4.033l2.635-2.362a2.746 2.746 0 0 1 1.999-.696c.794.043 1.531.4 2.074 1.007 1.072 1.196 1.026 3.016-.103 4.057l-2.602 2.402a2.73 2.73 0 0 1-1.868.723Zm2.342-7.661c-.556 0-1.08.198-1.487.563l-2.635 2.362c-.92.824-.977 2.299-.126 3.289l.033.038a2.497 2.497 0 0 0 1.734.871 2.214 2.214 0 0 0 1.646-.578l2.602-2.402c.916-.845.946-2.33.068-3.31a2.46 2.46 0 0 0-1.706-.83c-.043-.002-.085-.004-.128-.004Z" fill="#fff"/><path d="M39.831 55.452c.981 1.094.943 2.735-.085 3.684l-2.602 2.402c-1.064.982-2.771.839-3.762-.314l-.033-.039c-.951-1.107-.885-2.734.151-3.661l2.635-2.362c1.052-.945 2.707-.814 3.697.29Z" fill="#e15673"/><path d="M35.456 62.457a3.032 3.032 0 0 1-2.277-1.06l-.033-.038c-1.038-1.208-.959-3.018.175-4.033l2.635-2.362a2.747 2.747 0 0 1 2.071-.69 3 3 0 0 1 2.003 1.001c1.072 1.196 1.026 3.016-.103 4.057l-2.602 2.402a2.73 2.73 0 0 1-1.868.723Zm2.341-7.66c-.556 0-1.077.197-1.486.563l-2.635 2.362c-.92.824-.977 2.299-.126 3.289l.033.038a2.499 2.499 0 0 0 1.734.871 2.212 2.212 0 0 0 1.646-.578l2.602-2.402c.916-.845.946-2.33.068-3.31a2.472 2.472 0 0 0-1.834-.833Z" fill="#fff"/></svg>