<?xml version="1.0" encoding="UTF-8"?><svg id="Layer_2" xmlns="http://www.w3.org/2000/svg" width="69" height="68.997" viewBox="0 0 69 68.997"><g id="Layer_2-2"><g><path d="m0,51.483V5.406c.033-.083.081-.162.098-.249C.666,2.113,2.938.062,6.034.039c6.958-.054,13.917-.048,20.875-.003,2.977.019,5.291,1.952,5.872,4.861.333,1.667.474,3.373.686,5.064.618,4.94,1.229,9.881,1.841,14.821.602,4.852,1.201,9.703,1.802,14.555.636,5.119,1.278,10.236,1.907,15.355.118.964-.75,2.179-1.535,2.181-10.438.003-20.877.01-31.315-.007-1.967-.003-3.604-.772-4.86-2.328-.727-.905-1.044-1.963-1.307-3.054Zm21.122-20.86c.423,2.123.83,4.21,1.257,6.293.251,1.224,1.291,1.963,2.394,1.731,1.14-.24,1.817-1.296,1.578-2.497-1.318-6.593-2.639-13.185-3.965-19.777-.271-1.348-.979-1.929-2.331-1.938-1.189-.008-2.379-.008-3.57,0-1.362.008-2.073.588-2.347,1.919-.335,1.625-.654,3.252-.979,4.878-.995,4.966-1.992,9.932-2.985,14.899-.218,1.086.281,2.042,1.235,2.409,1.236.476,2.452-.255,2.74-1.667.424-2.079.834-4.16,1.253-6.25,1.918.001,3.776.001,5.72.001Z" style="fill:#987baf;"/><path d="m63.604,68.997h-30.858c.109-.14.211-.288.328-.421,2.748-3.144,5.486-6.296,8.251-9.425,1.273-1.441,1.897-3.11,1.702-5.007-.295-2.855-.687-5.701-1.042-8.55-.607-4.875-1.217-9.749-1.826-14.622-.564-4.518-1.128-9.037-1.691-13.554-.211-1.687-.417-3.374-.629-5.091.187-.019.317-.044.447-.044,8.174-.001,16.346-.022,24.52.026.91.006,1.896.238,2.712.639,2.357,1.158,3.454,3.182,3.469,5.774.025,4.086.007,8.171.007,12.257,0,10.528-.003,21.057.001,31.585.001,2.153-.709,4.004-2.522,5.222-.845.567-1.905.818-2.869,1.212Zm-8.876-22.551c.195.16.383.314.571.465,1.422,1.132,2.831,2.28,4.271,3.388,1.016.782,2.228.642,2.932-.279.71-.929.526-2.115-.467-2.91-.542-.435-1.107-.844-1.651-1.276-.96-.764-1.912-1.536-2.799-2.251.979-1.494,1.984-2.853,2.795-4.317.808-1.462,1.421-3.033,2.144-4.608.023-.001.134-.01.245-.015,1.316-.052,2.201-.889,2.178-2.062-.025-1.173-.929-1.969-2.259-1.98-.719-.006-1.437-.001-2.155-.001h-3.801c0-.655.006-1.234-.001-1.813-.014-1.313-.838-2.221-2.014-2.223-1.177-.004-2.011.903-2.027,2.212-.007.596-.001,1.192-.001,1.826-2.043,0-3.994-.01-5.945.004-1.223.008-2.106.838-2.135,1.965-.03,1.125.827,2.024,2.032,2.058.408.011.575.136.701.522.728,2.251,1.773,4.356,3.073,6.332.452.686.966,1.33,1.472,2.018-.233.204-.43.385-.637.555-1.267,1.038-2.539,2.071-3.803,3.113-.658.544-.961,1.239-.75,2.091.201.815.745,1.319,1.557,1.505.716.164,1.319-.11,1.864-.556,1.524-1.246,3.052-2.491,4.611-3.76Z" style="fill:#987baf;"/><path d="m34.212,60.945c-2.229,2.455-4.363,4.814-6.519,7.154-.106.116-.456.145-.607.061-1.574-.866-2.617-2.174-2.999-3.932-.23-1.064-.322-2.16-.482-3.282h10.606Z" style="fill:#987baf;"/><path d="m17.82,18.496h.874c.533,2.658,1.066,5.325,1.608,8.032h-4.083c.534-2.681,1.061-5.328,1.601-8.032Z" style="fill:#987baf;"/><path d="m54.711,40.473c-1.432-1.795-2.497-3.684-3.282-5.796h6.684c-.783,2.152-1.965,3.999-3.402,5.796Z" style="fill:#987baf;"/></g></g></svg>