<?xml version="1.0" encoding="UTF-8"?><svg id="Layer_2" xmlns="http://www.w3.org/2000/svg" width="16" height="26.665" viewBox="0 0 16 26.665"><g id="Layer_2-2"><g><path d="m13.332,0H2.667C1.198,0,0,1.196,0,2.667v21.332c0,1.47,1.196,2.667,2.667,2.667h10.666c1.47,0,2.667-1.195,2.667-2.667V2.666c-.001-1.469-1.196-2.666-2.668-2.666h0Zm1.6,23.998c0,.882-.718,1.6-1.6,1.6H2.667c-.882,0-1.6-.718-1.6-1.6V2.666c0-.882.718-1.6,1.6-1.6h10.666c.882,0,1.6.718,1.6,1.6v21.333h-.001Z" style="fill:#107b96;"/><path d="m9.066,2.133h-2.133c-.294,0-.533.239-.533.533s.239.533.533.533h2.133c.294,0,.533-.239.533-.533s-.239-.533-.533-.533h0Z" style="fill:#107b96;"/><path d="m7.999,23.464c-.294,0-.533.239-.533.533s.239.533.533.533.533-.239.533-.533-.239-.533-.533-.533h0Z" style="fill:#107b96;"/><path d="m15.466,4.266H.533c-.294,0-.533.239-.533.533s.239.533.533.533h14.932c.294,0,.533-.239.533-.533.001-.293-.238-.533-.532-.533h0Z" style="fill:#107b96;"/><path d="m15.466,21.332H.533c-.294,0-.533.239-.533.533s.239.533.533.533h14.932c.294,0,.533-.239.533-.533s-.238-.533-.532-.533h0Z" style="fill:#107b96;"/></g></g></svg>