<?xml version="1.0" encoding="UTF-8"?><svg id="Layer_2" xmlns="http://www.w3.org/2000/svg" width="73" height="73" viewBox="0 0 73 73"><g id="Layer_2-2"><g><circle cx="36.5" cy="27.945" r="6.416" style="fill:#e97b8e;"/><path d="m25.807,45.055v2.139h21.387v-2.139c0-5.896-4.795-10.693-10.693-10.693s-10.693,4.798-10.693,10.693Z" style="fill:#e97b8e;"/><path d="m63.71,12.317l-12.135,12.132c.416.827,4.173,4.996,4.173,12.051s-3.751,11.214-4.173,12.051l12.135,12.132c.888-1.56,9.29-8.766,9.29-24.183,0-14.326-8.844-23.4-9.29-24.183Z" style="fill:#e97b8e;"/><path d="m36.5,0c-9.255,0-17.687,3.649-24.113,9.363l12.165,12.165c3.294-2.633,7.413-4.276,11.948-4.276,7.068,0,11.208,3.748,12.051,4.173l12.135-12.135c-1.557-.887-8.737-9.29-24.186-9.29h0Z" style="fill:#e97b8e;"/><path d="m0,36.5c0,9.256,3.649,17.687,9.365,24.111l12.165-12.165c-2.635-3.292-4.277-7.411-4.277-11.947s1.643-8.654,4.276-11.948l-12.163-12.163C3.649,18.813,0,27.245,0,36.5h0Z" style="fill:#e97b8e;"/><path d="m48.551,51.575c-.81.408-5.02,4.173-12.051,4.173-4.535,0-8.654-1.642-11.948-4.276l-12.165,12.165c6.426,5.715,14.858,9.363,24.113,9.363,14.355,0,23.404-8.846,24.186-9.29l-12.135-12.135Z" style="fill:#e97b8e;"/></g></g></svg>