<?xml version="1.0" encoding="utf-8"?>
<!-- Generator: Adobe Illustrator 24.0.0, SVG Export Plug-In . SVG Version: 6.00 Build 0)  -->
<svg version="1.1" id="Layer_1" xmlns="http://www.w3.org/2000/svg" xmlns:xlink="http://www.w3.org/1999/xlink" x="0px" y="0px"
	 viewBox="0 0 30 21" style="enable-background:new 0 0 30 21;" xml:space="preserve">
<style type="text/css">
	.st0{clip-path:url(#SVGID_2_);fill:#0F7B94;}
</style>
<g>
	<g>
		<defs>
			<rect id="SVGID_1_" y="0" width="30" height="21"/>
		</defs>
		<clipPath id="SVGID_2_">
			<use xlink:href="#SVGID_1_"  style="overflow:visible;"/>
		</clipPath>
		<path class="st0" d="M22.55,6.11c-0.04,0-20.43,0-20.43,0l4.3-4.79C6.69,1,6.66,0.53,6.35,0.25C6.04-0.03,5.56,0,5.28,0.31
			l-4.84,5.4c-0.59,0.66-0.59,1.65,0,2.31l4.84,5.4c0.15,0.17,0.36,0.25,0.57,0.25c0.18,0,0.36-0.06,0.5-0.19
			c0.31-0.28,0.34-0.75,0.06-1.07l-4.3-4.79c0,0,20.39,0,20.43,0c3.27,0,5.94,2.65,5.94,5.91c0,3.26-2.66,5.91-5.94,5.91h-3.61
			c-0.42,0-0.76,0.34-0.76,0.75c0,0.42,0.34,0.75,0.76,0.75h3.61c4.11,0,7.45-3.33,7.45-7.42C30,9.44,26.66,6.11,22.55,6.11
			L22.55,6.11z M22.55,6.11"/>
	</g>
</g>
</svg>
